<svg width="36" height="35" viewBox="0 0 36 35" fill="none" xmlns="http://www.w3.org/2000/svg">
<rect x="0.5" width="35" height="35" rx="10" fill="#45AAFF"/>
<path fill-rule="evenodd" clip-rule="evenodd" d="M13.4203 8.6441L13.4546 8.49458C13.52 8.21673 13.6272 7.80804 13.8483 7.40558C14.0739 6.99564 14.4234 6.5801 14.9716 6.30661C15.518 6.03435 16.2027 5.93281 17.0493 6.04495C17.9838 6.16955 19.8609 6.47855 21.5193 7.3221C23.1871 8.17062 24.7496 9.63031 24.7496 12.0613C24.7496 13.3172 24.2637 14.6648 23.7927 15.5432C23.5665 15.9656 23.298 16.3693 23.0289 16.5867C22.9672 16.6366 22.8794 16.6989 22.7703 16.7425C22.4713 17.7253 21.876 18.5918 21.0658 19.2234C20.2556 19.8551 19.2701 20.2211 18.244 20.2714C17.2179 20.3217 16.2014 20.0539 15.3333 19.5045C14.4652 18.9552 13.788 18.1511 13.3942 17.2023L13.3792 17.2048L13.1581 16.9362L13.1574 16.935L13.1562 16.9337L13.1531 16.9294L13.1425 16.9169C13.0892 16.8505 13.0379 16.7826 12.9886 16.7132C12.8544 16.5264 12.7276 16.3344 12.6086 16.1376C12.3158 15.6529 11.9625 14.9626 11.7364 14.157C11.5108 13.3515 11.4074 12.407 11.6442 11.4327C11.8747 10.4844 12.4186 9.55119 13.4035 8.71762L13.4203 8.6441ZM14.467 16.5176C14.7372 17.2946 15.256 17.9609 15.9432 18.4132C16.6304 18.8655 17.4475 19.0786 18.2681 19.0195C19.0886 18.9603 19.8668 18.6323 20.482 18.0862C21.0973 17.5401 21.5153 16.8064 21.6714 15.9986L21.7418 16.0223C21.739 15.9871 21.7378 15.9517 21.738 15.9164C21.738 14.8853 21.5947 14.1658 21.4614 13.7172C21.4353 13.6299 21.4064 13.5435 21.3748 13.458L21.3493 13.4593H21.3243C20.8585 13.4693 20.3928 13.4338 19.9338 13.3534C18.8641 13.1727 17.4156 12.7216 15.7099 11.6769C15.6725 11.7604 15.6351 11.8544 15.5977 11.9591C15.4756 12.3049 15.3753 12.7154 15.2887 13.149C15.2121 13.5309 15.1492 13.9153 15.0894 14.2754L15.0663 14.4174C15.0021 14.8037 14.938 15.1831 14.8632 15.4579C14.7324 15.9351 14.5991 16.274 14.467 16.517M13.5948 15.3563C13.3137 14.8732 13.0927 14.3574 12.9369 13.8206C12.7506 13.1565 12.6821 12.4376 12.8553 11.7267C13.0235 11.0352 13.4303 10.3081 14.267 9.6191C14.4178 9.51693 14.4863 9.37987 14.505 9.34311V9.34249C14.5374 9.275 14.5637 9.20474 14.5835 9.13254C14.6034 9.06151 14.6252 8.96433 14.6458 8.87711L14.6676 8.77929C14.7268 8.52823 14.8034 8.25473 14.9405 8.00491C15.0738 7.76318 15.2563 7.55634 15.528 7.42115C15.8008 7.28472 16.2232 7.19127 16.8848 7.27973C17.7901 7.39997 19.4927 7.68842 20.9543 8.43228C22.4059 9.17054 23.5036 10.2882 23.5036 12.0606C23.5036 12.8768 23.2295 13.805 22.8993 14.5371C22.837 14.0598 22.7473 13.6698 22.6551 13.3608C22.5901 13.1402 22.51 12.9243 22.4152 12.7148C22.3789 12.6374 22.3394 12.5615 22.2969 12.4874L22.2863 12.4706L22.2825 12.4643L22.2807 12.4612L22.2794 12.4594L22.0489 12.1018L21.6365 12.1846L21.6277 12.1865L21.5673 12.1946C21.4746 12.205 21.3815 12.2112 21.2882 12.2133C20.9041 12.2206 20.5202 12.1906 20.1419 12.1236C19.137 11.9541 17.6605 11.4925 15.8669 10.2982L15.4308 10.0072L15.07 10.3873C14.7729 10.7 14.571 11.1268 14.4234 11.5423C14.2726 11.9691 14.1586 12.4457 14.067 12.9029C13.991 13.2921 13.9221 13.6826 13.8602 14.0742L13.8365 14.2137C13.7698 14.6193 13.7156 14.9289 13.6608 15.1295C13.6384 15.2122 13.6164 15.2878 13.5948 15.3563Z" fill="#FAFAFA"/>
<path fill-rule="evenodd" clip-rule="evenodd" d="M14.2084 20.8106C14.0764 20.5477 13.9138 20.2231 13.639 20.286C10.2723 21.0523 6.78601 23.2646 6.78601 25.617V28.9999H29.214V25.617C29.214 23.7642 27.051 21.998 24.4873 20.957L24.4842 20.9507L24.4755 20.9339L24.4549 20.9439C23.774 20.6698 23.065 20.4455 22.361 20.286C22.0477 20.2144 21.7237 20.6455 21.5823 20.9152H14.262L14.2084 20.8106ZM22.6121 21.6329C22.8845 21.7085 23.1547 21.793 23.4226 21.8865C23.4301 22.0996 23.4139 22.3512 23.379 22.6079C23.3437 22.8737 23.2871 23.1362 23.2095 23.3929H22.361C22.2454 23.393 22.132 23.4252 22.0336 23.4861C21.9352 23.5469 21.8558 23.634 21.8041 23.7374L21.1811 24.9834C21.1377 25.0699 21.1151 25.1652 21.115 25.2619V26.5079C21.115 26.6731 21.1807 26.8316 21.2975 26.9484C21.4143 27.0653 21.5728 27.1309 21.738 27.1309H22.984V25.8849H22.361V25.4089L22.746 24.6389H24.468L24.853 25.4089V25.8849H24.23V27.1309H25.476C25.6413 27.1309 25.7997 27.0653 25.9165 26.9484C26.0334 26.8316 26.099 26.6731 26.099 26.5079V25.2619C26.0989 25.1652 26.0763 25.0699 26.033 24.9834L25.41 23.7374C25.3583 23.634 25.2788 23.5469 25.1804 23.4861C25.0821 23.4252 24.9687 23.393 24.853 23.3929H24.5004C24.5766 23.063 24.6282 22.728 24.6549 22.3905C25.2623 22.6777 25.8268 23.0073 26.3158 23.3636C27.5132 24.2371 27.968 25.0544 27.968 25.617V27.7539H8.03201V25.617C8.03201 25.0544 8.4868 24.2371 9.68421 23.3636C10.286 22.9244 11.0043 22.5269 11.7744 22.198C11.7959 22.6944 11.8755 23.1866 12.0117 23.6645L12.0167 23.682C11.6443 23.9176 11.3671 24.2773 11.2341 24.6974C11.1011 25.1176 11.1208 25.5713 11.2899 25.9783C11.4589 26.3853 11.7664 26.7195 12.1579 26.9218C12.5494 27.1242 12.9999 27.1816 13.4297 27.0841C13.8595 26.9865 14.2409 26.7402 14.5068 26.3887C14.7726 26.0371 14.9056 25.6029 14.8823 25.1628C14.8591 24.7227 14.6811 24.305 14.3797 23.9834C14.0783 23.6618 13.673 23.4571 13.2353 23.4054L13.2079 23.3156C13.142 23.0836 13.0931 22.8471 13.0615 22.6079C13.0266 22.3664 13.012 22.1224 13.0179 21.8784C13.02 21.8261 13.0231 21.7795 13.0272 21.7388C13.102 21.7156 13.1767 21.6934 13.2515 21.6722L13.5101 22.1619H22.3342L22.6121 21.6329ZM13.016 25.8949C13.3512 25.8949 13.639 25.6207 13.639 25.2625C13.639 24.9049 13.3512 24.6302 13.016 24.6302C12.6808 24.6302 12.393 24.9043 12.393 25.2625C12.393 25.6201 12.6808 25.8949 13.016 25.8949Z" fill="#FAFAFA"/>
</svg>
