<svg width="19" height="19" viewBox="0 0 19 19" fill="none" xmlns="http://www.w3.org/2000/svg">
<path d="M9.5 18C14.1946 18 18 14.1946 18 9.5C18 4.80545 14.1946 1 9.5 1C4.80545 1 1 4.80545 1 9.5C1 14.1946 4.80545 18 9.5 18Z" stroke="#004580" stroke-width="1.7" stroke-linecap="round" stroke-linejoin="round"/>
<path d="M9.5 9.075C10.0636 9.075 10.6041 8.85111 11.0026 8.4526C11.4011 8.05408 11.625 7.51358 11.625 6.95C11.625 6.38641 11.4011 5.84591 11.0026 5.4474C10.6041 5.04888 10.0636 4.825 9.5 4.825C8.93641 4.825 8.39591 5.04888 7.9974 5.4474C7.59888 5.84591 7.375 6.38641 7.375 6.95C7.375 7.51358 7.59888 8.05408 7.9974 8.4526C8.39591 8.85111 8.93641 9.075 9.5 9.075Z" stroke="#004580" stroke-width="1.7" stroke-linejoin="round"/>
<path d="M3.55936 15.5911C3.70556 13.3764 5.54836 11.625 7.80001 11.625H11.2C13.4487 11.625 15.2898 13.3718 15.4402 15.5822" stroke="#004580" stroke-width="1.7" stroke-linecap="round" stroke-linejoin="round"/>
</svg>
