<svg width="36" height="35" viewBox="0 0 36 35" fill="none" xmlns="http://www.w3.org/2000/svg">
<rect x="0.5" width="35" height="35" rx="10" fill="#45AAFF"/>
<path d="M12 21.3L13.143 22.5L16 19.5M12 14.3L13.143 15.5L16 12.5" stroke="#FAFAFA" stroke-width="1.5" stroke-linecap="round" stroke-linejoin="round"/>
<path d="M19 14.5H24M19 21.5H24M28 17.5C28 22.214 28 24.571 26.535 26.035C25.072 27.5 22.714 27.5 18 27.5C13.286 27.5 10.929 27.5 9.464 26.035C8 24.572 8 22.214 8 17.5C8 12.786 8 10.429 9.464 8.964C10.93 7.5 13.286 7.5 18 7.5C22.714 7.5 25.071 7.5 26.535 8.964C27.509 9.938 27.835 11.307 27.945 13.5" stroke="#FAFAFA" stroke-width="1.5" stroke-linecap="round"/>
</svg>
