<svg width="30" height="22" viewBox="0 0 30 22" fill="none" xmlns="http://www.w3.org/2000/svg">
<path d="M0 1.5C0 1.10218 0.158035 0.720645 0.43934 0.43934C0.720644 0.158036 1.10218 0 1.5 0H28.5C28.8978 0 29.2794 0.158036 29.5607 0.43934C29.842 0.720645 30 1.10218 30 1.5C30 1.89782 29.842 2.27936 29.5607 2.56066C29.2794 2.84196 28.8978 3 28.5 3H1.5C1.10218 3 0.720644 2.84196 0.43934 2.56066C0.158035 2.27936 0 1.89782 0 1.5ZM0 10.548C0 10.1502 0.158035 9.76865 0.43934 9.48734C0.720644 9.20604 1.10218 9.048 1.5 9.048H28.5C28.8978 9.048 29.2794 9.20604 29.5607 9.48734C29.842 9.76865 30 10.1502 30 10.548C30 10.9458 29.842 11.3274 29.5607 11.6087C29.2794 11.89 28.8978 12.048 28.5 12.048H1.5C1.10218 12.048 0.720644 11.89 0.43934 11.6087C0.158035 11.3274 0 10.9458 0 10.548ZM1.5 18.0975C1.10218 18.0975 0.720644 18.2555 0.43934 18.5368C0.158035 18.8181 0 19.1997 0 19.5975C0 19.9953 0.158035 20.3769 0.43934 20.6582C0.720644 20.9395 1.10218 21.0975 1.5 21.0975H28.5C28.8978 21.0975 29.2794 20.9395 29.5607 20.6582C29.842 20.3769 30 19.9953 30 19.5975C30 19.1997 29.842 18.8181 29.5607 18.5368C29.2794 18.2555 28.8978 18.0975 28.5 18.0975H1.5Z" fill="#FAFAFA"/>
</svg>
