<svg width="36" height="35" viewBox="0 0 36 35" fill="none" xmlns="http://www.w3.org/2000/svg">
<rect x="0.5" width="35" height="35" rx="10" fill="#45AAFF"/>
<path d="M18.3734 6.75C18.5723 6.75 18.7631 6.82902 18.9037 6.96967C19.0444 7.11032 19.1234 7.30109 19.1234 7.5V7.751C20.0544 7.75976 20.9488 8.11453 21.6327 8.74629C22.3166 9.37805 22.741 10.2416 22.8234 11.169C22.8374 11.335 22.8374 11.523 22.8374 11.798V13.02C22.8374 16.89 19.8934 20.07 16.1234 20.447V22.5C16.1234 23.6272 16.5712 24.7082 17.3682 25.5052C18.1652 26.3022 19.2462 26.75 20.3734 26.75H21.2554C21.9196 26.7499 22.569 26.5536 23.1219 26.1857C23.6749 25.8177 24.1068 25.2946 24.3634 24.682C24.4034 24.5873 24.4317 24.4783 24.4484 24.355C23.7691 24.1342 23.1909 23.6783 22.8176 23.0694C22.4443 22.4604 22.3004 21.7382 22.4119 21.0327C22.5234 20.3272 22.8828 19.6845 23.4257 19.2203C23.9685 18.756 24.6591 18.5006 25.3734 18.5C26.1196 18.4992 26.8393 18.7765 27.392 19.2778C27.9448 19.7791 28.2908 20.4685 28.3627 21.2112C28.4345 21.9539 28.227 22.6968 27.7806 23.2947C27.3342 23.8927 26.6809 24.3028 25.9484 24.445C25.9215 24.7257 25.8538 25.0009 25.7474 25.262C25.3765 26.1473 24.7522 26.9032 23.953 27.4349C23.1538 27.9665 22.2153 28.2501 21.2554 28.25H20.3734C18.8484 28.25 17.3859 27.6442 16.3075 26.5659C15.2292 25.4875 14.6234 24.025 14.6234 22.5V20.45C12.7066 20.2636 10.9279 19.3703 9.63383 17.944C8.33976 16.5178 7.62307 14.6608 7.62341 12.735V11.798C7.62341 11.523 7.62341 11.335 7.63841 11.17C7.71599 10.293 8.09964 9.4713 8.72218 8.84876C9.34471 8.22623 10.1664 7.84257 11.0434 7.765C11.2365 7.75199 11.43 7.74698 11.6234 7.75V7.5C11.6234 7.30109 11.7024 7.11032 11.8431 6.96967C11.9837 6.82902 12.1745 6.75 12.3734 6.75C12.5723 6.75 12.7631 6.82902 12.9037 6.96967C13.0444 7.11032 13.1234 7.30109 13.1234 7.5V9.5C13.1234 9.69891 13.0444 9.88968 12.9037 10.0303C12.7631 10.171 12.5723 10.25 12.3734 10.25C12.1745 10.25 11.9837 10.171 11.8431 10.0303C11.7024 9.88968 11.6234 9.69891 11.6234 9.5V9.25C11.3604 9.25 11.2574 9.251 11.1754 9.259C10.6492 9.30554 10.1562 9.53574 9.78267 9.90926C9.40915 10.2828 9.17896 10.7758 9.13241 11.302C9.12441 11.392 9.12341 11.508 9.12341 11.837V12.735C9.12341 14.3926 9.78189 15.9823 10.954 17.1544C12.1261 18.3265 13.7158 18.985 15.3734 18.985C16.1566 18.985 16.9322 18.8307 17.6557 18.531C18.3793 18.2313 19.0368 17.792 19.5906 17.2382C20.1444 16.6844 20.5837 16.0269 20.8834 15.3033C21.1831 14.5797 21.3374 13.8042 21.3374 13.021V11.837C21.3374 11.508 21.3374 11.392 21.3294 11.302C21.28 10.7481 21.0273 10.2321 20.6199 9.85353C20.2126 9.47497 19.6795 9.26068 19.1234 9.252V9.5C19.1234 9.69891 19.0444 9.88968 18.9037 10.0303C18.7631 10.171 18.5723 10.25 18.3734 10.25C18.1745 10.25 17.9837 10.171 17.8431 10.0303C17.7024 9.88968 17.6234 9.69891 17.6234 9.5V7.5C17.6234 7.30109 17.7024 7.11032 17.8431 6.96967C17.9837 6.82902 18.1745 6.75 18.3734 6.75Z" fill="#FAFAFA"/>
</svg>
