<svg width="985" height="130" viewBox="0 0 985 130" fill="none" xmlns="http://www.w3.org/2000/svg">
<path d="M188.985 36.1699L196.264 83.3709H196.407L203.757 36.1699H218.958V103.038H209.538V49.6559H209.395L200.332 103.038H192.339L183.276 49.6559H183.133V103.038H173.713V36.1699H188.985Z" fill="#45AAFF"/>
<path d="M226.807 36.17H237.083V103.038H226.807V36.17Z" fill="#45AAFF"/>
<mask id="mask0_2001_28" style="mask-type:luminance" maskUnits="userSpaceOnUse" x="0" y="0" width="1024" height="130">
<path d="M0 0H1024V130H0V0Z" fill="white"/>
</mask>
<g mask="url(#mask0_2001_28)">
<path d="M260.062 93.1104C261.869 93.1104 263.32 92.7054 264.415 91.8934C265.509 91.0834 266.377 89.7394 267.02 87.8664C267.662 85.9934 268.09 83.5274 268.304 80.4674C268.519 77.4094 268.625 73.6004 268.625 69.0424C268.625 65.2344 268.529 61.8934 268.34 59.0214C268.149 56.1504 267.757 53.7624 267.163 51.8574C266.567 49.9534 265.687 48.5174 264.522 47.5484C263.355 46.5814 261.798 46.0974 259.848 46.0974H255.495V93.1104H260.062ZM262.06 36.1704C265.628 36.1704 268.506 36.9354 270.695 38.4644C272.883 39.9954 274.584 42.1804 275.797 45.0204C277.011 47.8614 277.832 51.2804 278.26 55.2754C278.687 59.2714 278.902 63.7364 278.902 68.6684C278.902 74.5374 278.627 79.6404 278.081 83.9794C277.534 88.3204 276.594 91.8934 275.262 94.7034C273.93 97.5124 272.145 99.6044 269.91 100.977C267.673 102.351 264.843 103.038 261.417 103.038H245.218V36.1704H262.06Z" fill="#45AAFF"/>
<path d="M315.511 47.2212H304.378V103.038H294.102V47.2212H282.969V36.1702H315.511V47.2212Z" fill="#45AAFF"/>
<path d="M329.391 81.0762C329.557 84.2292 329.891 86.7892 330.39 88.7562C330.89 90.7222 331.603 92.1592 332.531 93.0632C333.459 93.9702 334.683 94.4222 336.206 94.4222C337.728 94.4222 338.954 93.9702 339.881 93.0632C340.809 92.1592 341.523 90.7222 342.022 88.7562C342.522 86.7892 342.854 84.2292 343.021 81.0762C343.187 77.9252 343.271 74.0992 343.271 69.6042C343.271 65.1082 343.187 61.3022 343.021 58.1792C342.854 55.0572 342.522 52.4982 342.022 50.4992C341.523 48.5022 340.809 47.0502 339.881 46.1442C338.954 45.2402 337.728 44.7862 336.206 44.7862C334.683 44.7862 333.459 45.2402 332.531 46.1442C331.603 47.0502 330.89 48.5022 330.39 50.4992C329.891 52.4982 329.557 55.0572 329.391 58.1792C329.224 61.3022 329.141 65.1082 329.141 69.6042C329.141 74.0992 329.224 77.9252 329.391 81.0762ZM319.4 55.6032C319.757 51.3272 320.542 47.6592 321.755 44.5982C322.968 41.5402 324.717 39.1522 327 37.4342C329.284 35.7182 332.352 34.8592 336.206 34.8592C340.06 34.8592 343.128 35.7182 345.412 37.4342C347.696 39.1522 349.444 41.5402 350.657 44.5982C351.87 47.6592 352.656 51.3272 353.013 55.6032C353.369 59.8812 353.548 64.5472 353.548 69.6042C353.548 74.7242 353.369 79.4072 353.013 83.6522C352.656 87.8982 351.87 91.5512 350.657 94.6092C349.444 97.6692 347.696 100.01 345.412 101.633C343.128 103.256 340.06 104.068 336.206 104.068C332.352 104.068 329.284 103.256 327 101.633C324.717 100.01 322.968 97.6692 321.755 94.6092C320.542 91.5512 319.757 87.8982 319.4 83.6522C319.043 79.4072 318.865 74.7242 318.865 69.6042C318.865 64.5472 319.043 59.8812 319.4 55.6032Z" fill="#45AAFF"/>
<path d="M366.464 36.1699L372.102 85.6179H372.245L378.239 36.1699H388.088L394.082 85.6179H394.225L399.862 36.1699H409.711L400.433 103.038H388.943L383.235 54.5259H383.092L377.383 103.038H365.893L356.616 36.1699H366.464Z" fill="#45AAFF"/>
<path d="M438.113 81.9658H438.256V36.1698H447.676V103.038H435.972L423.412 56.2118H423.269V103.038H413.849V36.1698H425.696L438.113 81.9658Z" fill="#45AAFF"/>
<path d="M481.07 103.038H447.6L458.448 36.1701H490.776L490.49 38.0431H459.59L454.808 67.2631H483.639L483.354 69.1361H454.452L449.242 101.165H481.427L481.07 103.038Z" fill="#45AAFF"/>
<path d="M512.113 38.7925H511.97L492.773 79.1565H517.751L512.113 38.7925ZM491.845 81.0295L481.426 103.039H479.856L511.684 36.1695H513.112L522.532 103.039H521.104L517.965 81.0295H491.845Z" fill="#45AAFF"/>
<path d="M528.919 90.1611C529.704 92.8771 530.893 95.1711 532.487 97.0441C534.081 98.9171 536.02 100.338 538.304 101.306C540.587 102.274 543.108 102.757 545.868 102.757C547.296 102.757 548.973 102.522 550.899 102.055C552.826 101.586 554.646 100.713 556.358 99.4321C558.071 98.1531 559.523 96.3571 560.712 94.0471C561.9 91.7381 562.496 88.7411 562.496 85.0571C562.496 82.5601 562.079 80.5001 561.247 78.8761C560.414 77.2531 559.331 75.8791 558 74.7551C556.668 73.6311 555.146 72.7111 553.433 71.9921C551.72 71.2751 549.959 70.5731 548.151 69.8851C546.343 69.1991 544.584 68.4491 542.871 67.6381C541.158 66.8271 539.635 65.8111 538.304 64.5941C536.971 63.3761 535.889 61.8631 535.057 60.0521C534.224 58.2411 533.808 55.9941 533.808 53.3081C533.855 50.0001 534.379 47.1601 535.378 44.7861C536.377 42.4141 537.685 40.4781 539.303 38.9791C540.92 37.4811 542.775 36.3731 544.869 35.6551C546.962 34.9381 549.103 34.5781 551.292 34.5781C553.956 34.5781 556.382 34.9531 558.571 35.7021C560.759 36.4511 562.626 37.6541 564.173 39.3071C565.719 40.9621 566.885 43.1001 567.67 45.7231C568.455 48.3451 568.751 51.5291 568.562 55.2751H567.135C567.324 51.7791 567.051 48.8461 566.314 46.4721C565.576 44.0991 564.494 42.1641 563.066 40.6651C561.64 39.1671 559.915 38.0901 557.893 37.4341C555.87 36.7791 553.67 36.4511 551.292 36.4511C549.341 36.4511 547.414 36.7641 545.512 37.3881C543.608 38.0121 541.907 39.0121 540.409 40.3841C538.91 41.7581 537.685 43.5071 536.733 45.6291C535.781 47.7521 535.282 50.3111 535.235 53.3081C535.188 55.7431 535.567 57.7731 536.377 59.3961C537.186 61.0201 538.256 62.3781 539.588 63.4701C540.92 64.5631 542.442 65.4831 544.155 66.2321C545.868 66.9811 547.628 67.7001 549.437 68.3871C551.244 69.0741 553.016 69.8231 554.753 70.6341C556.489 71.4461 558.036 72.4761 559.392 73.7241C560.747 74.9741 561.842 76.5041 562.675 78.3131C563.506 80.1251 563.923 82.3731 563.923 85.0571C563.923 88.9291 563.316 92.1271 562.104 94.6561C560.891 97.1841 559.367 99.1831 557.536 100.649C555.704 102.117 553.741 103.132 551.648 103.693C549.555 104.255 547.628 104.536 545.868 104.536C543.014 104.536 540.361 104.068 537.911 103.132C535.46 102.195 533.356 100.743 531.596 98.7761C529.835 96.8091 528.515 94.3451 527.635 91.3781C526.754 88.4131 526.457 84.9011 526.743 80.8431H528.17C527.885 84.3401 528.135 87.4441 528.919 90.1611Z" fill="#45AAFF"/>
<path d="M574.413 36.1699H612.735L612.45 38.0429H594.038L583.476 103.038H581.977L592.539 38.0429H574.128L574.413 36.1699Z" fill="#45AAFF"/>
<path d="M624.581 36.1699L631.86 83.3709H632.003L639.353 36.1699H654.555V103.038H645.134V49.6559H644.991L635.929 103.038H627.935L618.872 49.6559H618.729V103.038H609.31V36.1699H624.581Z" fill="#45AAFF"/>
<path d="M690.378 47.2212H672.181V62.9552H689.308V74.0062H672.181V91.9872H691.092V103.038H661.904V36.1702H690.378V47.2212Z" fill="#45AAFF"/>
<path d="M711.572 93.1104C713.38 93.1104 714.831 92.7054 715.926 91.8934C717.019 91.0834 717.888 89.7394 718.53 87.8664C719.173 85.9934 719.6 83.5274 719.815 80.4674C720.029 77.4094 720.135 73.6004 720.135 69.0424C720.135 65.2344 720.04 61.8934 719.85 59.0214C719.66 56.1504 719.267 53.7624 718.673 51.8574C718.078 49.9534 717.198 48.5174 716.033 47.5484C714.866 46.5814 713.308 46.0974 711.358 46.0974H707.005V93.1104H711.572ZM713.57 36.1704C717.138 36.1704 720.016 36.9354 722.206 38.4644C724.393 39.9954 726.094 42.1804 727.308 45.0204C728.521 47.8614 729.342 51.2804 729.77 55.2754C730.198 59.2714 730.412 63.7364 730.412 68.6684C730.412 74.5374 730.138 79.6404 729.592 83.9794C729.044 88.3204 728.104 91.8934 726.773 94.7034C725.44 97.5124 723.656 99.6044 721.421 100.977C719.183 102.351 716.353 103.038 712.928 103.038H696.728V36.1704H713.57Z" fill="#45AAFF"/>
<path d="M737.69 36.17H747.966V103.038H737.69V36.17Z" fill="#45AAFF"/>
<path d="M776.048 48.1113C775.167 45.8953 773.562 44.7863 771.232 44.7863C769.946 44.7863 768.887 45.2393 768.056 46.1443C767.223 47.0493 766.568 48.5173 766.093 50.5463C765.617 52.5753 765.283 55.2283 765.094 58.5073C764.903 61.7843 764.809 65.7973 764.809 70.5413C764.809 75.5973 764.939 79.6873 765.201 82.8083C765.462 85.9313 765.866 88.3503 766.414 90.0673C766.96 91.7853 767.651 92.9393 768.484 93.5323C769.316 94.1263 770.278 94.4223 771.374 94.4223C772.277 94.4223 773.122 94.2193 773.907 93.8133C774.693 93.4083 775.37 92.5953 775.942 91.3783C776.512 90.1613 776.964 88.4443 777.297 86.2273C777.629 84.0113 777.797 81.0923 777.797 77.4703H788.073C788.073 81.0923 787.859 84.5273 787.431 87.7723C787.002 91.0193 786.205 93.8603 785.04 96.2953C783.874 98.7293 782.233 100.634 780.116 102.007C777.998 103.38 775.251 104.068 771.873 104.068C768.02 104.068 764.951 103.256 762.667 101.632C760.384 100.009 758.636 97.6693 757.422 94.6093C756.209 91.5503 755.424 87.8983 755.068 83.6523C754.71 79.4073 754.532 74.7243 754.532 69.6043C754.532 64.5473 754.71 59.8813 755.068 55.6033C755.424 51.3273 756.209 47.6583 757.422 44.5983C758.636 41.5403 760.384 39.1523 762.667 37.4343C764.951 35.7173 768.02 34.8593 771.873 34.8593C775.536 34.8593 778.427 35.6403 780.544 37.2003C782.66 38.7613 784.242 40.7443 785.29 43.1473C786.336 45.5513 786.99 48.1433 787.252 50.9213C787.513 53.6993 787.645 56.3053 787.645 58.7403H777.368C777.368 53.8703 776.928 50.3283 776.048 48.1113Z" fill="#45AAFF"/>
<path d="M815.19 77.8457L810.265 47.7827H810.123L805.199 77.8457H815.19ZM816.545 36.1697L830.033 103.038H819.329L816.974 88.8967H803.415L801.059 103.038H790.355L803.842 36.1697H816.545Z" fill="#45AAFF"/>
<path d="M833.602 36.1699H843.878V91.9869H862.076V103.038H833.602V36.1699Z" fill="#45AAFF"/>
<path d="M872.416 86.791C871.562 87.525 870.847 88.458 870.268 89.591C869.688 90.725 869.246 91.978 868.941 93.352C868.637 94.725 868.484 96.052 868.484 97.331C868.484 99.171 868.865 100.625 869.627 101.691C870.39 102.758 871.472 103.291 872.873 103.291C873.971 103.291 874.941 102.932 875.785 102.211C876.627 101.491 877.328 100.571 877.888 99.451C878.446 98.331 878.867 97.099 879.152 95.751C879.437 94.405 879.58 93.105 879.58 91.852C879.58 90.091 879.233 88.625 878.543 87.451C877.852 86.278 876.785 85.691 875.343 85.691C874.245 85.691 873.27 86.059 872.416 86.791ZM870.344 84.171L869.734 87.892H869.795C870.466 86.531 871.243 85.472 872.127 84.711C873.011 83.951 874.144 83.571 875.525 83.571C876.541 83.571 877.42 83.778 878.162 84.191C878.903 84.605 879.523 85.178 880.021 85.911C880.52 86.645 880.891 87.531 881.134 88.571C881.378 89.611 881.5 90.758 881.5 92.012C881.5 93.611 881.301 95.205 880.905 96.791C880.509 98.378 879.935 99.805 879.184 101.071C878.432 102.338 877.527 103.371 876.471 104.171C875.414 104.972 874.225 105.371 872.904 105.371C872.295 105.371 871.705 105.284 871.137 105.111C870.567 104.937 870.059 104.665 869.612 104.291C869.165 103.918 868.789 103.432 868.484 102.831C868.18 102.231 867.977 101.519 867.875 100.691H867.814L865.894 112.411H864.004L868.606 84.171H870.344Z" fill="#45AAFF"/>
<path d="M895.521 88.5313C895.338 87.9183 895.079 87.4053 894.744 86.9913C894.409 86.5783 894.001 86.2583 893.524 86.0313C893.047 85.8043 892.524 85.6913 891.955 85.6913C890.796 85.6913 889.795 86.0253 888.952 86.6913C888.109 87.3583 887.403 88.2243 886.834 89.2913C886.264 90.3583 885.843 91.5583 885.569 92.8913C885.295 94.2243 885.158 95.5583 885.158 96.8913C885.158 97.7983 885.244 98.6453 885.417 99.4313C885.588 100.218 885.858 100.898 886.224 101.471C886.59 102.045 887.047 102.491 887.596 102.811C888.145 103.131 888.795 103.291 889.547 103.291C890.827 103.291 891.909 102.811 892.793 101.851C893.676 100.891 894.322 99.6513 894.729 98.1313H896.649C896.059 100.531 895.165 102.338 893.966 103.552C892.767 104.764 891.213 105.371 889.303 105.371C887.352 105.371 885.854 104.598 884.807 103.052C883.76 101.505 883.237 99.4513 883.237 96.8913C883.237 95.2913 883.43 93.6913 883.817 92.0913C884.202 90.4913 884.761 89.0653 885.493 87.8113C886.224 86.5583 887.118 85.5383 888.175 84.7513C889.231 83.9653 890.43 83.5713 891.772 83.5713C892.625 83.5713 893.418 83.7113 894.149 83.9913C894.881 84.2713 895.51 84.7053 896.04 85.2913C896.567 85.8783 896.973 86.6113 897.258 87.4913C897.542 88.3713 897.674 89.4113 897.655 90.6113H895.735C895.775 89.8383 895.704 89.1453 895.521 88.5313Z" fill="#45AAFF"/>
</g>
</svg>
