<svg width="20" height="19" viewBox="0 0 20 19" fill="none" xmlns="http://www.w3.org/2000/svg">
<path fill-rule="evenodd" clip-rule="evenodd" d="M2.48303 1.04305C3.70003 -0.166948 5.70403 0.0480527 6.72303 1.41005L7.98503 3.09405C8.81503 4.20205 8.74103 5.75005 7.75603 6.72905L7.51803 6.96705C7.49104 7.06696 7.4883 7.17187 7.51003 7.27305C7.57303 7.68105 7.91403 8.54505 9.34203 9.96505C10.77 11.3851 11.64 11.7251 12.054 11.7891C12.1583 11.81 12.2661 11.807 12.369 11.7801L12.777 11.3741C13.653 10.5041 14.997 10.3411 16.081 10.9301L17.991 11.9701C19.628 12.8581 20.041 15.0821 18.701 16.4151L17.28 17.8271C16.832 18.2721 16.23 18.6431 15.496 18.7121C13.686 18.8811 9.46903 18.6651 5.03603 14.2581C0.899027 10.1441 0.105027 6.55605 0.00402701 4.78805C-0.045973 3.89405 0.376027 3.13805 0.914027 2.60405L2.48303 1.04305ZM5.52303 2.30905C5.01603 1.63205 4.07203 1.57805 3.54003 2.10705L1.97003 3.66705C1.64003 3.99505 1.48203 4.35705 1.50203 4.70305C1.58203 6.10805 2.22203 9.34505 6.09403 13.1951C10.156 17.2331 13.907 17.3541 15.357 17.2181C15.653 17.1911 15.947 17.0371 16.222 16.7641L17.642 15.3511C18.22 14.7771 18.093 13.7311 17.275 13.2871L15.365 12.2481C14.837 11.9621 14.219 12.0561 13.835 12.4381L13.38 12.8911L12.85 12.3591C13.38 12.8911 13.379 12.8921 13.378 12.8921L13.377 12.8941L13.374 12.8971L13.367 12.9031L13.352 12.9171C13.3098 12.9562 13.2643 12.9917 13.216 13.0231C13.136 13.0761 13.03 13.1351 12.897 13.1841C12.627 13.2851 12.269 13.3391 11.827 13.2711C10.96 13.1381 9.81103 12.5471 8.28403 11.0291C6.75803 9.51105 6.16203 8.36905 6.02803 7.50305C5.95903 7.06105 6.01403 6.70305 6.11603 6.43305C6.17216 6.28112 6.25254 6.13928 6.35403 6.01305L6.38603 5.97805L6.40003 5.96305L6.40603 5.95705L6.40903 5.95405L6.41103 5.95205L6.69903 5.66605C7.12703 5.23905 7.18703 4.53205 6.78403 3.99305L5.52303 2.30905Z" fill="#FAFAFA"/>
</svg>
