<svg width="18" height="23" viewBox="0 0 18 23" fill="none" xmlns="http://www.w3.org/2000/svg">
<path d="M9.113 21.48C9.04002 21.5066 8.95999 21.5066 8.887 21.48C7.917 21.14 1 18.44 1 10.752V3.80399C0.999791 3.71463 1.02952 3.62776 1.08443 3.55725C1.13935 3.48675 1.2163 3.43667 1.303 3.41499L8.903 1.51199C8.96669 1.49608 9.03331 1.49608 9.097 1.51199L16.697 3.41499C16.7837 3.43667 16.8607 3.48675 16.9156 3.55725C16.9705 3.62776 17.0002 3.71463 17 3.80399V10.752C17 18.517 10.084 21.149 9.113 21.481V21.48Z" stroke="#004580" stroke-width="1.5" stroke-miterlimit="10" stroke-linejoin="round"/>
<path d="M13.874 9.28799L11.222 11.435L12.169 14.528C12.1973 14.5957 12.2001 14.6714 12.177 14.7411C12.1538 14.8108 12.1062 14.8697 12.043 14.907C11.98 14.97 11.917 14.97 11.853 14.97C11.79 14.97 11.727 14.97 11.664 14.907L9.07601 13.013L6.42401 14.907C6.36576 14.9383 6.30065 14.9547 6.23451 14.9547C6.16836 14.9547 6.10326 14.9383 6.04501 14.907C5.98178 14.8697 5.93419 14.8108 5.91103 14.7411C5.88787 14.6714 5.89071 14.5957 5.91901 14.528L6.73901 11.371L4.15101 9.28799C4.08778 9.25068 4.04019 9.19175 4.01703 9.12209C3.99387 9.05243 3.99671 8.97673 4.02501 8.90899C4.08801 8.78299 4.21501 8.65699 4.34001 8.65699H7.68701L8.69701 5.75299C8.76001 5.62599 8.88701 5.49999 9.01201 5.49999C9.13901 5.49999 9.26501 5.62599 9.32801 5.75299L10.401 8.65699H13.684C13.811 8.65699 13.937 8.78299 14 8.90899C14 9.03599 13.937 9.16099 13.874 9.28799Z" stroke="#004580" stroke-width="1.5" stroke-miterlimit="10" stroke-linejoin="round"/>
</svg>
