<svg width="36" height="35" viewBox="0 0 36 35" fill="none" xmlns="http://www.w3.org/2000/svg">
<rect x="0.5" width="35" height="35" rx="10" fill="#45AAFF"/>
<path d="M9 25.5V17.5C9 16.9696 9.21071 16.4609 9.58579 16.0858C9.96086 15.7107 10.4696 15.5 11 15.5M11 15.5H25M11 15.5V11.5C11 10.9696 11.2107 10.4609 11.5858 10.0858C11.9609 9.71071 12.4696 9.5 13 9.5H23C23.5304 9.5 24.0391 9.71071 24.4142 10.0858C24.7893 10.4609 25 10.9696 25 11.5V15.5M25 15.5C25.5304 15.5 26.0391 15.7107 26.4142 16.0858C26.7893 16.4609 27 16.9696 27 17.5V25.5M9 23.5H27" stroke="#FAFAFA" stroke-width="2" stroke-linecap="round" stroke-linejoin="round"/>
</svg>
