<svg width="36" height="35" viewBox="0 0 36 35" fill="none" xmlns="http://www.w3.org/2000/svg">
<rect x="0.5" width="35" height="35" rx="10" fill="#45AAFF"/>
<path d="M10 23V25H26V23H10ZM13 12V10C13 9.45 13.196 8.97933 13.588 8.588C13.98 8.19667 14.4507 8.00067 15 8H21C21.55 8 22.021 8.196 22.413 8.588C22.805 8.98 23.0007 9.45067 23 10V12H26C26.55 12 27.021 12.196 27.413 12.588C27.805 12.98 28.0007 13.4507 28 14V25C28 25.55 27.8043 26.021 27.413 26.413C27.0217 26.805 26.5507 27.0007 26 27H10C9.45 27 8.97933 26.8043 8.588 26.413C8.19667 26.0217 8.00067 25.5507 8 25V14C8 13.45 8.196 12.9793 8.588 12.588C8.98 12.1967 9.45067 12.0007 10 12H13ZM10 20H26V14H23V15C23 15.2833 22.904 15.521 22.712 15.713C22.52 15.905 22.2827 16.0007 22 16C21.7173 15.9993 21.48 15.9033 21.288 15.712C21.096 15.5207 21 15.2833 21 15V14H15V15C15 15.2833 14.904 15.521 14.712 15.713C14.52 15.905 14.2827 16.0007 14 16C13.7173 15.9993 13.48 15.9033 13.288 15.712C13.096 15.5207 13 15.2833 13 15V14H10V20ZM15 12H21V10H15V12Z" fill="#FAFAFA"/>
</svg>
