<svg width="36" height="35" viewBox="0 0 36 35" fill="none" xmlns="http://www.w3.org/2000/svg">
<rect x="0.5" width="35" height="35" rx="10" fill="#45AAFF"/>
<path d="M20.5048 18.0024C20.5048 18.6655 20.2414 19.3014 19.7725 19.7702C19.3037 20.239 18.6678 20.5024 18.0048 20.5024C17.3417 20.5024 16.7058 20.239 16.237 19.7702C15.7682 19.3014 15.5048 18.6655 15.5048 18.0024C15.5048 17.3394 15.7682 16.7035 16.237 16.2347C16.7058 15.7658 17.3417 15.5024 18.0048 15.5024C18.6678 15.5024 19.3037 15.7658 19.7725 16.2347C20.2414 16.7035 20.5048 17.3394 20.5048 18.0024Z" stroke="#FAFAFA" stroke-width="1.5" stroke-linecap="round" stroke-linejoin="round"/>
<path d="M18.0047 8.50244C20.2147 8.50244 22.0027 10.4194 22.0027 12.6294C22.3241 12.5448 22.6581 12.5024 23.0047 12.5024C23.9135 12.502 24.7953 12.811 25.505 13.3786C26.2147 13.9462 26.7099 14.7386 26.9092 15.6252C27.1085 16.5118 27 17.4398 26.6015 18.2566C26.203 19.0733 25.5382 19.7299 24.7167 20.1184C25.0422 20.5583 25.2739 21.0602 25.3976 21.5932C25.5213 22.1262 25.5344 22.6789 25.436 23.2171C25.3376 23.7553 25.1298 24.2676 24.8255 24.7223C24.5212 25.177 24.1268 25.5645 23.6668 25.8607C23.2068 26.1569 22.6909 26.3556 22.151 26.4445C21.6111 26.5334 21.0587 26.5106 20.528 26.3774C19.9973 26.2443 19.4996 26.0037 19.0655 25.6706C18.6315 25.3374 18.2705 24.9187 18.0047 24.4404C17.739 24.9187 17.3779 25.3374 16.9439 25.6706C16.5099 26.0037 16.0122 26.2443 15.4814 26.3774C14.9507 26.5106 14.3984 26.5334 13.8585 26.4445C13.3186 26.3556 12.8027 26.1569 12.3427 25.8607C11.8827 25.5645 11.4883 25.177 11.184 24.7223C10.8797 24.2676 10.6719 23.7553 10.5735 23.2171C10.4751 22.6789 10.4881 22.1262 10.6118 21.5932C10.7355 21.0602 10.9673 20.5583 11.2927 20.1184C10.3898 19.6943 9.67788 18.9481 9.29674 18.0262C8.91559 17.1042 8.8927 16.0732 9.23256 15.1352C9.57242 14.1973 10.2505 13.4202 11.1337 12.9564C12.017 12.4927 13.0417 12.3757 14.0067 12.6284C14.0067 10.4204 15.7957 8.50244 18.0047 8.50244Z" stroke="#FAFAFA" stroke-width="1.5" stroke-linecap="round" stroke-linejoin="round"/>
</svg>
