<svg width="36" height="35" viewBox="0 0 36 35" fill="none" xmlns="http://www.w3.org/2000/svg">
<rect x="0.5" width="35" height="35" rx="10" fill="#45AAFF"/>
<path d="M27.0068 10.2365L25.3019 11.5148C24.8995 11.8166 24.4102 11.9797 23.9073 11.9797H20.0047C19.6265 11.9798 19.2577 12.0969 18.9486 12.3148C18.6395 12.5328 18.4054 12.841 18.2783 13.1971C18.1511 13.5533 18.1372 13.9401 18.2385 14.3045C18.3397 14.6688 18.5511 14.993 18.8437 15.2326L21.1681 17.1339C22.0683 17.8704 22.77 18.8204 23.2092 19.8975C23.6485 20.9745 23.8113 22.1443 23.683 23.3003L23.6295 23.7849C23.557 24.4356 23.416 25.0768 23.2088 25.6979L22.9392 26.5067M7.25 15.4662L11.0131 14.8386C11.3781 14.7777 11.7524 14.8048 12.1048 14.9177C12.4573 15.0306 12.7776 15.226 13.0393 15.4877C13.301 15.7494 13.4964 16.0697 13.6093 16.4222C13.7222 16.7746 13.7493 17.1489 13.6884 17.5139L13.5315 18.4518C13.3959 19.2699 13.5258 20.1099 13.9022 20.8487C14.2787 21.5876 14.8818 22.1865 15.6234 22.5577C16.2156 22.8534 16.6892 23.3424 16.9656 23.9439C17.242 24.5454 17.3048 25.2232 17.1435 25.8652L16.5473 28.25" stroke="#FAFAFA" stroke-width="2.32432"/>
<path d="M18.2905 27.6689C24.0671 27.6689 28.75 22.9861 28.75 17.2095C28.75 11.4329 24.0671 6.75 18.2905 6.75C12.5139 6.75 7.83105 11.4329 7.83105 17.2095C7.83105 22.9861 12.5139 27.6689 18.2905 27.6689Z" stroke="#FAFAFA" stroke-width="2.32432"/>
</svg>
