<svg width="36" height="35" viewBox="0 0 36 35" fill="none" xmlns="http://www.w3.org/2000/svg">
<rect x="0.5" width="35" height="35" rx="10" fill="#45AAFF"/>
<path d="M8 26.0714H13.7143V27.5H8V26.0714ZM18.7143 26.7857C18.6073 26.7856 18.5017 26.7615 18.4052 26.7152C18.3088 26.6688 18.224 26.6014 18.1571 26.5179L15.5143 23.2143H8V21.7857H15.8571C15.9641 21.7858 16.0698 21.8099 16.1662 21.8562C16.2626 21.9026 16.3474 21.97 16.4143 22.0536L18.6621 24.8621L22.4057 19.2464C22.4691 19.1514 22.5544 19.073 22.6543 19.0177C22.7543 18.9624 22.8661 18.9319 22.9803 18.9288C23.0944 18.9256 23.2077 18.9499 23.3106 18.9996C23.4135 19.0493 23.5029 19.1229 23.5714 19.2143L25.5 21.7857H28V23.2143H25.1429C25.032 23.2143 24.9226 23.1885 24.8234 23.1389C24.7242 23.0893 24.638 23.0173 24.5714 22.9286L23.0343 20.8786L19.3086 26.4679C19.2462 26.5613 19.1627 26.6388 19.0647 26.6939C18.9668 26.749 18.8573 26.7802 18.745 26.785L18.7143 26.7857ZM14.4286 17.5V13.9286H15.1429C15.9003 13.9276 16.6265 13.6263 17.1621 13.0907C17.6977 12.5551 17.9991 11.8289 18 11.0714V8.92857H15.8571C15.1257 8.92992 14.423 9.21312 13.895 9.71929C13.5253 9.04754 12.9821 8.48729 12.3222 8.09694C11.6622 7.70659 10.9096 7.50044 10.1429 7.5H8V9.64286C8.00132 10.7791 8.45328 11.8684 9.25672 12.6719C10.0602 13.4753 11.1495 13.9272 12.2857 13.9286H13V17.5H8V18.9286H18V17.5H14.4286ZM15.8571 10.3571H16.5714V11.0714C16.5714 11.4503 16.4209 11.8137 16.153 12.0816C15.8851 12.3495 15.5217 12.5 15.1429 12.5H14.4286V11.7857C14.4286 11.4068 14.5791 11.0435 14.847 10.7756C15.1149 10.5077 15.4783 10.3571 15.8571 10.3571ZM12.2857 12.5C11.5282 12.4991 10.8021 12.1977 10.2665 11.6621C9.73084 11.1265 9.42952 10.4003 9.42857 9.64286V8.92857H10.1429C10.9003 8.92952 11.6265 9.23084 12.1621 9.76645C12.6977 10.3021 12.9991 11.0282 13 11.7857V12.5H12.2857Z" fill="#FAFAFA"/>
</svg>
