<svg width="119" height="160" viewBox="0 0 119 160" fill="none" xmlns="http://www.w3.org/2000/svg">
<path d="M0.0309815 58.5942C0.0309815 26.2214 26.6751 0 59.5155 0C92.3559 0 119 26.2214 119 58.5942C119 95.6583 81.7602 140.085 66.2075 157.017C62.5517 160.994 56.4483 160.994 52.7925 157.017C37.2398 140.085 0 95.6583 0 58.5942H0.0309815ZM59.5155 79.534C64.7742 79.534 69.8176 77.4391 73.5361 73.7102C77.2546 69.9814 79.3437 64.9239 79.3437 59.6505C79.3437 54.3771 77.2546 49.3196 73.5361 45.5907C69.8176 41.8619 64.7742 39.767 59.5155 39.767C54.2567 39.767 49.2134 41.8619 45.4949 45.5907C41.7764 49.3196 39.6873 54.3771 39.6873 59.6505C39.6873 64.9239 41.7764 69.9814 45.4949 73.7102C49.2134 77.4391 54.2567 79.534 59.5155 79.534Z" fill="white"/>
</svg>
