<svg width="742" height="130" viewBox="0 0 742 130" fill="none" xmlns="http://www.w3.org/2000/svg">
<path d="M25.9849 36.1699L33.2639 83.3709H33.4069L40.7569 36.1699H55.9579V103.038H46.5379V49.6559H46.3949L37.3319 103.038H29.3389L20.2759 49.6559H20.1329V103.038H10.7129V36.1699H25.9849Z" fill="white"/>
<path d="M63.807 36.17H74.083V103.038H63.807V36.17Z" fill="white"/>
<mask id="mask0_2001_28" style="mask-type:luminance" maskUnits="userSpaceOnUse" x="0" y="0" width="742" height="130">
<path d="M0 0H742V130H0V0Z" fill="white"/>
</mask>
<g mask="url(#mask0_2001_28)">
<path d="M97.062 93.1104C98.869 93.1104 100.32 92.7054 101.415 91.8934C102.509 91.0834 103.377 89.7394 104.02 87.8664C104.662 85.9934 105.09 83.5274 105.304 80.4674C105.519 77.4094 105.625 73.6004 105.625 69.0424C105.625 65.2344 105.529 61.8934 105.34 59.0214C105.149 56.1504 104.757 53.7624 104.163 51.8574C103.567 49.9534 102.687 48.5174 101.522 47.5484C100.355 46.5814 98.798 46.0974 96.848 46.0974H92.495V93.1104H97.062ZM99.06 36.1704C102.628 36.1704 105.506 36.9354 107.695 38.4644C109.883 39.9954 111.584 42.1804 112.797 45.0204C114.011 47.8614 114.832 51.2804 115.26 55.2754C115.687 59.2714 115.902 63.7364 115.902 68.6684C115.902 74.5374 115.627 79.6404 115.081 83.9794C114.534 88.3204 113.594 91.8934 112.262 94.7034C110.93 97.5124 109.145 99.6044 106.91 100.977C104.673 102.351 101.843 103.038 98.417 103.038H82.218V36.1704H99.06Z" fill="white"/>
<path d="M152.511 47.2212H141.378V103.038H131.102V47.2212H119.969V36.1702H152.511V47.2212Z" fill="white"/>
<path d="M166.391 81.0762C166.557 84.2292 166.891 86.7892 167.39 88.7562C167.89 90.7222 168.603 92.1592 169.531 93.0632C170.459 93.9702 171.683 94.4222 173.206 94.4222C174.728 94.4222 175.954 93.9702 176.881 93.0632C177.809 92.1592 178.523 90.7222 179.022 88.7562C179.522 86.7892 179.854 84.2292 180.021 81.0762C180.187 77.9252 180.271 74.0992 180.271 69.6042C180.271 65.1082 180.187 61.3022 180.021 58.1792C179.854 55.0572 179.522 52.4982 179.022 50.4992C178.523 48.5022 177.809 47.0502 176.881 46.1442C175.954 45.2402 174.728 44.7862 173.206 44.7862C171.683 44.7862 170.459 45.2402 169.531 46.1442C168.603 47.0502 167.89 48.5022 167.39 50.4992C166.891 52.4982 166.557 55.0572 166.391 58.1792C166.224 61.3022 166.141 65.1082 166.141 69.6042C166.141 74.0992 166.224 77.9252 166.391 81.0762ZM156.4 55.6032C156.757 51.3272 157.542 47.6592 158.755 44.5982C159.968 41.5402 161.717 39.1522 164 37.4342C166.284 35.7182 169.352 34.8592 173.206 34.8592C177.06 34.8592 180.128 35.7182 182.412 37.4342C184.696 39.1522 186.444 41.5402 187.657 44.5982C188.87 47.6592 189.656 51.3272 190.013 55.6032C190.369 59.8812 190.548 64.5472 190.548 69.6042C190.548 74.7242 190.369 79.4072 190.013 83.6522C189.656 87.8982 188.87 91.5512 187.657 94.6092C186.444 97.6692 184.696 100.01 182.412 101.633C180.128 103.256 177.06 104.068 173.206 104.068C169.352 104.068 166.284 103.256 164 101.633C161.717 100.01 159.968 97.6692 158.755 94.6092C157.542 91.5512 156.757 87.8982 156.4 83.6522C156.043 79.4072 155.865 74.7242 155.865 69.6042C155.865 64.5472 156.043 59.8812 156.4 55.6032Z" fill="white"/>
<path d="M203.464 36.1699L209.102 85.6179H209.245L215.239 36.1699H225.088L231.082 85.6179H231.225L236.862 36.1699H246.711L237.433 103.038H225.943L220.235 54.5259H220.092L214.383 103.038H202.893L193.616 36.1699H203.464Z" fill="white"/>
<path d="M275.113 81.9658H275.256V36.1698H284.676V103.038H272.972L260.412 56.2118H260.269V103.038H250.849V36.1698H262.696L275.113 81.9658Z" fill="white"/>
<path d="M318.07 103.038H284.6L295.448 36.1701H327.776L327.49 38.0431H296.59L291.808 67.2631H320.639L320.354 69.1361H291.452L286.242 101.165H318.427L318.07 103.038Z" fill="white"/>
<path d="M349.113 38.7925H348.97L329.773 79.1565H354.751L349.113 38.7925ZM328.845 81.0295L318.426 103.039H316.856L348.684 36.1695H350.112L359.532 103.039H358.104L354.965 81.0295H328.845Z" fill="white"/>
<path d="M365.919 90.1611C366.704 92.8771 367.893 95.1711 369.487 97.0441C371.081 98.9171 373.02 100.338 375.304 101.306C377.587 102.274 380.108 102.757 382.868 102.757C384.296 102.757 385.973 102.522 387.899 102.055C389.826 101.586 391.646 100.713 393.358 99.4321C395.071 98.1531 396.523 96.3571 397.712 94.0471C398.9 91.7381 399.496 88.7411 399.496 85.0571C399.496 82.5601 399.079 80.5001 398.247 78.8761C397.414 77.2531 396.331 75.8791 395 74.7551C393.668 73.6311 392.146 72.7111 390.433 71.9921C388.72 71.2751 386.959 70.5731 385.151 69.8851C383.343 69.1991 381.584 68.4491 379.871 67.6381C378.158 66.8271 376.635 65.8111 375.304 64.5941C373.971 63.3761 372.889 61.8631 372.057 60.0521C371.224 58.2411 370.808 55.9941 370.808 53.3081C370.855 50.0001 371.379 47.1601 372.378 44.7861C373.377 42.4141 374.685 40.4781 376.303 38.9791C377.92 37.4811 379.775 36.3731 381.869 35.6551C383.962 34.9381 386.103 34.5781 388.292 34.5781C390.956 34.5781 393.382 34.9531 395.571 35.7021C397.759 36.4511 399.626 37.6541 401.173 39.3071C402.719 40.9621 403.885 43.1001 404.67 45.7231C405.455 48.3451 405.751 51.5291 405.562 55.2751H404.135C404.324 51.7791 404.051 48.8461 403.314 46.4721C402.576 44.0991 401.494 42.1641 400.066 40.6651C398.64 39.1671 396.915 38.0901 394.893 37.4341C392.87 36.7791 390.67 36.4511 388.292 36.4511C386.341 36.4511 384.414 36.7641 382.512 37.3881C380.608 38.0121 378.907 39.0121 377.409 40.3841C375.91 41.7581 374.685 43.5071 373.733 45.6291C372.781 47.7521 372.282 50.3111 372.235 53.3081C372.188 55.7431 372.567 57.7731 373.377 59.3961C374.186 61.0201 375.256 62.3781 376.588 63.4701C377.92 64.5631 379.442 65.4831 381.155 66.2321C382.868 66.9811 384.628 67.7001 386.437 68.3871C388.244 69.0741 390.016 69.8231 391.753 70.6341C393.489 71.4461 395.036 72.4761 396.392 73.7241C397.747 74.9741 398.842 76.5041 399.675 78.3131C400.506 80.1251 400.923 82.3731 400.923 85.0571C400.923 88.9291 400.316 92.1271 399.104 94.6561C397.891 97.1841 396.367 99.1831 394.536 100.649C392.704 102.117 390.741 103.132 388.648 103.693C386.555 104.255 384.628 104.536 382.868 104.536C380.014 104.536 377.361 104.068 374.911 103.132C372.46 102.195 370.356 100.743 368.596 98.7761C366.835 96.8091 365.515 94.3451 364.635 91.3781C363.754 88.4131 363.457 84.9011 363.743 80.8431H365.17C364.885 84.3401 365.135 87.4441 365.919 90.1611Z" fill="white"/>
<path d="M411.413 36.1699H449.735L449.45 38.0429H431.038L420.476 103.038H418.977L429.539 38.0429H411.128L411.413 36.1699Z" fill="white"/>
<path d="M461.581 36.1699L468.86 83.3709H469.003L476.353 36.1699H491.555V103.038H482.134V49.6559H481.991L472.929 103.038H464.935L455.872 49.6559H455.729V103.038H446.31V36.1699H461.581Z" fill="white"/>
<path d="M527.378 47.2212H509.181V62.9552H526.308V74.0062H509.181V91.9872H528.092V103.038H498.904V36.1702H527.378V47.2212Z" fill="white"/>
<path d="M548.572 93.1104C550.38 93.1104 551.831 92.7054 552.926 91.8934C554.019 91.0834 554.888 89.7394 555.53 87.8664C556.173 85.9934 556.6 83.5274 556.815 80.4674C557.029 77.4094 557.135 73.6004 557.135 69.0424C557.135 65.2344 557.04 61.8934 556.85 59.0214C556.66 56.1504 556.267 53.7624 555.673 51.8574C555.078 49.9534 554.198 48.5174 553.033 47.5484C551.866 46.5814 550.308 46.0974 548.358 46.0974H544.005V93.1104H548.572ZM550.57 36.1704C554.138 36.1704 557.016 36.9354 559.206 38.4644C561.393 39.9954 563.094 42.1804 564.308 45.0204C565.521 47.8614 566.342 51.2804 566.77 55.2754C567.198 59.2714 567.412 63.7364 567.412 68.6684C567.412 74.5374 567.138 79.6404 566.592 83.9794C566.044 88.3204 565.104 91.8934 563.773 94.7034C562.44 97.5124 560.656 99.6044 558.421 100.977C556.183 102.351 553.353 103.038 549.928 103.038H533.728V36.1704H550.57Z" fill="white"/>
<path d="M574.69 36.17H584.966V103.038H574.69V36.17Z" fill="white"/>
<path d="M613.048 48.1113C612.167 45.8953 610.562 44.7863 608.232 44.7863C606.946 44.7863 605.887 45.2393 605.056 46.1443C604.223 47.0493 603.568 48.5173 603.093 50.5463C602.617 52.5753 602.283 55.2283 602.094 58.5073C601.903 61.7843 601.809 65.7973 601.809 70.5413C601.809 75.5973 601.939 79.6873 602.201 82.8083C602.462 85.9313 602.866 88.3503 603.414 90.0673C603.96 91.7853 604.651 92.9393 605.484 93.5323C606.316 94.1263 607.278 94.4223 608.374 94.4223C609.277 94.4223 610.122 94.2193 610.907 93.8133C611.693 93.4083 612.37 92.5953 612.942 91.3783C613.512 90.1613 613.964 88.4443 614.297 86.2273C614.629 84.0113 614.797 81.0923 614.797 77.4703H625.073C625.073 81.0923 624.859 84.5273 624.431 87.7723C624.002 91.0193 623.205 93.8603 622.04 96.2953C620.874 98.7293 619.233 100.634 617.116 102.007C614.998 103.38 612.251 104.068 608.873 104.068C605.02 104.068 601.951 103.256 599.667 101.632C597.384 100.009 595.636 97.6693 594.422 94.6093C593.209 91.5503 592.424 87.8983 592.068 83.6523C591.71 79.4073 591.532 74.7243 591.532 69.6043C591.532 64.5473 591.71 59.8813 592.068 55.6033C592.424 51.3273 593.209 47.6583 594.422 44.5983C595.636 41.5403 597.384 39.1523 599.667 37.4343C601.951 35.7173 605.02 34.8593 608.873 34.8593C612.536 34.8593 615.427 35.6403 617.544 37.2003C619.66 38.7613 621.242 40.7443 622.29 43.1473C623.336 45.5513 623.99 48.1433 624.252 50.9213C624.513 53.6993 624.645 56.3053 624.645 58.7403H614.368C614.368 53.8703 613.928 50.3283 613.048 48.1113Z" fill="white"/>
<path d="M652.19 77.8457L647.265 47.7827H647.123L642.199 77.8457H652.19ZM653.545 36.1697L667.033 103.038H656.329L653.974 88.8967H640.415L638.059 103.038H627.355L640.842 36.1697H653.545Z" fill="white"/>
<path d="M670.602 36.1699H680.878V91.9869H699.076V103.038H670.602V36.1699Z" fill="white"/>
<path d="M709.416 86.791C708.562 87.525 707.847 88.458 707.268 89.591C706.688 90.725 706.246 91.978 705.941 93.352C705.637 94.725 705.484 96.052 705.484 97.331C705.484 99.171 705.865 100.625 706.627 101.691C707.39 102.758 708.472 103.291 709.873 103.291C710.971 103.291 711.941 102.932 712.785 102.211C713.627 101.491 714.328 100.571 714.888 99.451C715.446 98.331 715.867 97.099 716.152 95.751C716.437 94.405 716.58 93.105 716.58 91.852C716.58 90.091 716.233 88.625 715.543 87.451C714.852 86.278 713.785 85.691 712.343 85.691C711.245 85.691 710.27 86.059 709.416 86.791ZM707.344 84.171L706.734 87.892H706.795C707.466 86.531 708.243 85.472 709.127 84.711C710.011 83.951 711.144 83.571 712.525 83.571C713.541 83.571 714.42 83.778 715.162 84.191C715.903 84.605 716.523 85.178 717.021 85.911C717.52 86.645 717.891 87.531 718.134 88.571C718.378 89.611 718.5 90.758 718.5 92.012C718.5 93.611 718.301 95.205 717.905 96.791C717.509 98.378 716.935 99.805 716.184 101.071C715.432 102.338 714.527 103.371 713.471 104.171C712.414 104.972 711.225 105.371 709.904 105.371C709.295 105.371 708.705 105.284 708.137 105.111C707.567 104.937 707.059 104.665 706.612 104.291C706.165 103.918 705.789 103.432 705.484 102.831C705.18 102.231 704.977 101.519 704.875 100.691H704.814L702.894 112.411H701.004L705.606 84.171H707.344Z" fill="white"/>
<path d="M732.521 88.5313C732.338 87.9183 732.079 87.4053 731.744 86.9913C731.409 86.5783 731.001 86.2583 730.524 86.0313C730.047 85.8043 729.524 85.6913 728.955 85.6913C727.796 85.6913 726.795 86.0253 725.952 86.6913C725.109 87.3583 724.403 88.2243 723.834 89.2913C723.264 90.3583 722.843 91.5583 722.569 92.8913C722.295 94.2243 722.158 95.5583 722.158 96.8913C722.158 97.7983 722.244 98.6453 722.417 99.4313C722.588 100.218 722.858 100.898 723.224 101.471C723.59 102.045 724.047 102.491 724.596 102.811C725.145 103.131 725.795 103.291 726.547 103.291C727.827 103.291 728.909 102.811 729.793 101.851C730.676 100.891 731.322 99.6513 731.729 98.1313H733.649C733.059 100.531 732.165 102.338 730.966 103.552C729.767 104.764 728.213 105.371 726.303 105.371C724.352 105.371 722.854 104.598 721.807 103.052C720.76 101.505 720.237 99.4513 720.237 96.8913C720.237 95.2913 720.43 93.6913 720.817 92.0913C721.202 90.4913 721.761 89.0653 722.493 87.8113C723.224 86.5583 724.118 85.5383 725.175 84.7513C726.231 83.9653 727.43 83.5713 728.772 83.5713C729.625 83.5713 730.418 83.7113 731.149 83.9913C731.881 84.2713 732.51 84.7053 733.04 85.2913C733.567 85.8783 733.973 86.6113 734.258 87.4913C734.542 88.3713 734.674 89.4113 734.655 90.6113H732.735C732.775 89.8383 732.704 89.1453 732.521 88.5313Z" fill="white"/>
</g>
</svg>
