<svg width="36" height="35" viewBox="0 0 36 35" fill="none" xmlns="http://www.w3.org/2000/svg">
<rect x="0.5" width="35" height="35" rx="10" fill="#45AAFF"/>
<path d="M23 7.5C23 8.01 23 8.265 23.068 8.502C23.1053 8.63267 23.157 8.75767 23.223 8.877C23.343 9.093 23.523 9.273 23.883 9.634L25.866 11.616C26.226 11.976 26.406 12.156 26.623 12.277C26.7417 12.3437 26.8667 12.3953 26.998 12.432C27.235 12.5 27.49 12.5 28 12.5M17.693 12.5L12.765 17.428C11.7 18.493 11.168 19.025 11.041 19.663C10.986 19.939 10.986 20.223 11.041 20.5C11.168 21.138 11.701 21.67 12.765 22.735C13.829 23.8 14.362 24.332 15 24.459M17 11.5L23 17.5M14 24.137L12.83 24.972C12.36 25.309 12.125 25.477 11.866 25.497C11.766 25.505 11.6667 25.4967 11.568 25.472C11.317 25.41 11.113 25.205 10.704 24.797C10.294 24.387 10.09 24.183 10.028 23.932C10.0048 23.8345 9.99635 23.734 10.003 23.634C10.023 23.375 10.191 23.14 10.527 22.669L11.363 21.5M19.5 13.5L24.5 9.5M22 16L26 11M10.5 25L8 27.5M19.4 23.5L19.98 24.08C20.27 24.37 20.415 24.515 20.591 24.507C20.768 24.499 20.899 24.342 21.161 24.027L22.6 22.3M25 23.5C25 24.5609 24.5786 25.5783 23.8284 26.3284C23.0783 27.0786 22.0609 27.5 21 27.5C19.9391 27.5 18.9217 27.0786 18.1716 26.3284C17.4214 25.5783 17 24.5609 17 23.5C17 22.4391 17.4214 21.4217 18.1716 20.6716C18.9217 19.9214 19.9391 19.5 21 19.5C22.0609 19.5 23.0783 19.9214 23.8284 20.6716C24.5786 21.4217 25 22.4391 25 23.5Z" stroke="#FAFAFA" stroke-width="1.5" stroke-linecap="round" stroke-linejoin="round"/>
</svg>
